<svg width="14" height="15" viewBox="0 0 14 15" fill="none" xmlns="http://www.w3.org/2000/svg">
<path d="M7.17 12.7242C8.61454 12.7242 9.99992 12.1504 11.0214 11.1289C12.0428 10.1075 12.6167 8.72212 12.6167 7.27757C12.6167 5.83303 12.0428 4.44764 11.0214 3.4262C9.99992 2.40475 8.61454 1.8309 7.17 1.8309C5.72545 1.8309 4.34007 2.40475 3.31862 3.4262C2.29717 4.44764 1.72333 5.83303 1.72333 7.27757C1.72333 8.72212 2.29717 10.1075 3.31862 11.1289C4.34007 12.1504 5.72545 12.7242 7.17 12.7242ZM7.17 0.469238C8.06408 0.469238 8.94941 0.645341 9.77543 0.987492C10.6015 1.32964 11.352 1.83114 11.9842 2.46335C12.6164 3.09557 13.1179 3.84611 13.4601 4.67213C13.8022 5.49816 13.9783 6.38349 13.9783 7.27757C13.9783 9.08325 13.261 10.815 11.9842 12.0918C10.7074 13.3686 8.97568 14.0859 7.17 14.0859C3.40499 14.0859 0.361664 11.0222 0.361664 7.27757C0.361664 5.47189 1.07897 3.74016 2.35578 2.46335C3.63259 1.18654 5.36432 0.469238 7.17 0.469238ZM7.51041 3.8734V7.44778L10.5742 9.2656L10.0635 10.103L6.48916 7.95841V3.8734H7.51041Z" fill="white"/>
</svg>
