<svg width="19" height="20" viewBox="0 0 19 20" fill="none" xmlns="http://www.w3.org/2000/svg">
<g clip-path="url(#clip0_1_21)">
<path d="M17.7171 6.08104C17.7171 6.36378 17.6182 6.6041 17.4202 6.80202L9.7439 14.4784L8.30193 15.9203C8.10402 16.1182 7.86369 16.2172 7.58095 16.2172C7.29821 16.2172 7.05788 16.1182 6.85997 15.9203L5.418 14.4784L1.57983 10.6402C1.38192 10.4423 1.28296 10.2019 1.28296 9.91921C1.28296 9.63647 1.38192 9.39614 1.57983 9.19823L3.0218 7.75626C3.21971 7.55834 3.46004 7.45939 3.74278 7.45939C4.02552 7.45939 4.26585 7.55834 4.46376 7.75626L7.58095 10.8841L14.5363 3.91809C14.7342 3.72017 14.9746 3.62122 15.2573 3.62122C15.54 3.62122 15.7804 3.72017 15.9783 3.91809L17.4202 5.36006C17.6182 5.55797 17.7171 5.7983 17.7171 6.08104Z" fill="#E88D30"/>
</g>
<defs>
<clipPath id="clip0_1_21">
<rect width="19" height="19" fill="white" transform="translate(0 0.0799561)"/>
</clipPath>
</defs>
</svg>
